# This file uses centimeters as units for non-parametric coordinates.

mtllib 3D_prop_object_mountain_003.mtl
g default
v -0.535620 0.340921 -2.654538
v 0.225596 0.326526 -2.550289
v -0.189544 0.343185 -2.977262
v 0.446757 0.308973 -2.807888
v -0.271133 0.313660 -2.219787
v -0.882209 0.320513 -2.339830
v -1.230738 0.283717 -1.727223
v 0.230614 0.167832 -3.228620
v -0.274857 0.000000 -2.162333
v -0.679695 0.343310 -2.460648
v -0.434698 0.438371 -2.300995
v -1.018195 0.303035 -2.195266
v -1.072035 0.458379 -1.828565
v -0.968943 0.295165 -1.716911
v -0.092655 0.600884 -2.630885
v 0.360013 0.339561 -2.692598
v 0.110870 0.467881 -2.903287
v -0.341052 0.345629 -2.810055
v 0.431546 0.375493 -3.202914
v 0.559959 0.162113 -3.152785
v 0.523050 0.000000 -2.801117
v -0.620559 -0.000493 -2.642039
v 0.454964 0.446794 -3.169340
v 0.502456 -0.003578 -2.653271
v -0.486220 -0.003345 -2.837351
v 0.252328 0.458111 -3.012946
v 0.563509 0.000000 -2.906546
v -0.335455 0.484604 -2.432002
v -0.765827 0.455473 -2.142502
v -1.257397 0.142532 -1.654488
v -0.220304 0.532166 -2.724866
v 0.142909 0.430702 -2.644185
v 0.240337 0.435534 -2.792907
v -0.117144 0.443219 -2.867461
v -0.569347 0.183989 -2.765180
v -0.389287 0.180107 -2.930757
v 0.333007 0.418018 -2.922458
v -0.053382 0.179490 -2.311385
v 0.032402 0.327683 -2.362075
v -0.414684 0.448988 -2.528545
v -0.295167 0.426172 -2.338402
v -0.299935 0.181454 -2.157586
v -0.840929 0.416581 -2.252471
v -0.698834 0.420778 -2.045483
v -1.053176 0.163187 -2.262184
v -0.940473 0.162198 -1.706553
v -1.051485 0.370771 -1.754229
v -1.291329 0.138664 -1.746714
v -0.027173 0.558301 -2.698609
v 0.198982 0.436758 -2.719742
v 0.060254 0.468903 -2.829636
v -0.167728 0.484703 -2.796723
v 0.457992 0.162960 -3.208310
v -0.545706 -0.000687 -2.736922
v -0.470675 0.184284 -2.842899
v 0.175063 0.463691 -2.964800
v 0.014843 0.424379 -3.020214
v -0.081947 0.165835 -3.152481
v 0.520327 0.412618 -3.137832
v 0.594628 0.175669 -2.998422
v 0.213626 0.175634 -2.466893
v -0.203228 0.580121 -2.549578
v -0.501251 0.434676 -2.415636
v -0.163701 0.498005 -2.456913
v -0.772353 0.184494 -2.472620
v -0.692360 0.426776 -2.205938
v -0.921942 0.396825 -2.202338
v -0.859666 0.444596 -2.097306
v -0.620941 0.387485 -2.107257
v -1.182683 0.184905 -2.077732
v -0.818864 0.180959 -1.755636
v -0.943950 -0.002386 -1.710295
v -0.987611 0.410544 -1.824774
v -1.270728 0.172044 -1.926404
v -1.001320 0.118526 -1.624010
v -1.211985 0.155979 -1.642046
v -0.300148 0.514481 -2.631911
v 0.105556 0.312425 -2.479296
v 0.308539 0.341307 -2.621862
v 0.400507 0.326258 -2.757543
v 0.282228 0.428685 -2.859907
v -0.054259 0.436236 -2.944403
v -0.267560 0.343616 -2.895656
v -0.437590 0.345049 -2.734278
v 0.357897 0.161436 -3.232229
v 0.508282 0.172309 -2.800461
v -0.699402 0.185926 -2.565047
v -0.299365 0.173434 -3.019653
v 0.580587 0.318446 -3.101090
v 0.194484 0.300721 -3.184043
v -0.106188 0.334215 -3.055751
v 0.124321 0.153617 -3.230678
v 0.534102 0.372504 -3.156096
v 0.392729 0.292615 -3.211682
v -0.177467 0.329939 -2.356405
v -0.610253 0.341884 -2.559679
v -0.745275 0.429129 -2.298725
v -0.383757 0.396656 -2.203366
v -0.973356 0.168888 -2.335846
v -0.366519 0.311135 -2.134445
v -0.591338 0.314918 -2.041370
v -0.655219 0.323018 -1.936038
v -0.953122 0.303829 -2.275703
v -1.161023 0.322217 -2.026923
v -1.116531 0.423327 -1.924506
v -0.779024 0.429221 -1.965193
v -1.214841 0.003210 -2.072359
v -1.234854 0.182315 -2.003511
v -0.756300 0.331302 -1.835591
v -1.194492 0.346970 -1.829974
v -0.619718 -0.004220 -2.641861
v 0.425431 -0.004220 -2.469431
v -0.350548 -0.004220 -3.038567
v 0.265769 -0.004220 -3.231750
v -0.275444 -0.004220 -2.162389
v -1.053890 -0.004220 -1.651716
v -1.269366 -0.004220 -1.636431
v -1.229179 -0.004220 -1.622728
v 0.457992 -0.004220 -3.208051
v 0.502277 -0.004220 -2.653360
v 0.502127 -0.004220 -2.643381
v 0.522433 -0.004220 -2.801269
v 0.496198 -0.004220 -2.545672
v -0.485967 -0.004220 -2.837280
v -0.479038 -0.004220 -2.853206
v -0.544868 -0.004220 -2.736716
v 0.564709 -0.004220 -2.910216
v 0.604944 -0.004220 -3.031629
v -0.101573 -0.004220 -3.162570
v -0.079027 -0.004220 -3.168075
v 0.560002 -0.004220 -3.152032
v 0.355917 -0.004220 -3.234286
v 0.271273 -0.004220 -2.438798
v 0.115333 -0.004220 -2.359472
v -0.674343 -0.004220 -2.593512
v -0.321235 -0.004220 -2.107826
v -1.105156 -0.004220 -2.252576
v -1.143969 -0.004220 -2.189971
v -1.256695 -0.004220 -1.936686
v -0.677285 -0.004220 -1.832930
v -0.806579 -0.004220 -1.757903
v -0.923023 -0.004220 -1.717531
v -0.965793 -0.004220 -1.699328
v -1.297095 -0.004220 -1.725960
v -1.064251 -0.004220 -1.652927
v 0.428366 -0.004220 -2.472301
v 0.427317 -0.004220 -2.470826
v -0.357084 -0.004220 -3.032291
v -0.438767 -0.004220 -2.941356
v -0.711258 -0.004220 -2.559782
v -0.714193 -0.004220 -2.557730
v -0.508915 -0.004220 -1.891513
v -0.524092 -0.004220 -1.880800
v -1.038206 -0.004220 -2.341410
v -1.213722 -0.004220 -2.068536
v -0.944668 -0.004220 -1.710192
v -1.271085 -0.004220 -1.890543
vt 0.375000 0.250000
vt 0.625000 0.250000
vt 0.375000 0.500000
vt 0.125000 0.250000
vt 0.625000 0.500000
vt 0.875000 0.250000
vt 0.585938 0.210938
vt 0.414063 0.210938
vt 0.462240 0.199870
vt 0.752930 0.125000
vt 0.247070 0.125000
vt 0.500000 0.503906
vt 0.618164 0.625000
vt 0.500000 0.246094
vt 0.500000 0.242188
vt 0.500000 0.282227
vt 0.625000 0.375000
vt 0.750000 0.250000
vt 0.500000 0.467773
vt 0.375000 0.375000
vt 0.250000 0.250000
vt 0.459201 0.529514
vt 0.540799 0.584201
vt 0.875000 0.125000
vt 0.625000 0.625000
vt 0.342773 0.125000
vt 0.500000 0.511502
vt 0.390625 0.578125
vt 0.617188 0.125000
vt 0.410645 0.214355
vt 0.500000 0.242188
vt 0.414063 0.210938
vt 0.500000 0.238498
vt 0.574870 0.199870
vt 0.459201 0.165799
vt 0.437500 0.320313
vt 0.562500 0.320313
vt 0.562500 0.429688
vt 0.437500 0.429688
vt 0.304688 0.187500
vt 0.187500 0.187500
vt 0.554688 0.500000
vt 0.609375 0.171875
vt 0.589355 0.214355
vt 0.445313 0.250000
vt 0.546875 0.234375
vt 0.609375 0.171875
vt 0.453125 0.234375
vt 0.546875 0.234375
vt 0.390625 0.171875
vt 0.595486 0.165799
vt 0.540799 0.220486
vt 0.404514 0.165799
vt 0.500000 0.324219
vt 0.562500 0.375000
vt 0.500000 0.425781
vt 0.437500 0.375000
vt 0.459201 0.584201
vt 0.300781 0.125000
vt 0.248047 0.187500
vt 0.500000 0.492188
vt 0.445313 0.500000
vt 0.388672 0.576172
vt 0.545356 0.519097
vt 0.609375 0.578125
vt 0.625000 0.179688
vt 0.500000 0.257813
vt 0.451172 0.238281
vt 0.548828 0.238281
vt 0.386719 0.173828
vt 0.500000 0.242188
vt 0.453125 0.234375
vt 0.500000 0.242188
vt 0.546875 0.234375
vt 0.390625 0.171875
vt 0.605903 0.170356
vt 0.602431 0.125000
vt 0.545356 0.230903
vt 0.390625 0.171875
vt 0.574870 0.162760
vt 0.500000 0.168837
vt 0.439453 0.275391
vt 0.599609 0.224609
vt 0.625000 0.312500
vt 0.687500 0.250000
vt 0.625000 0.437500
vt 0.812500 0.250000
vt 0.560547 0.474609
vt 0.439453 0.474609
vt 0.375000 0.437500
vt 0.187500 0.250000
vt 0.375000 0.312500
vt 0.312500 0.250000
vt 0.404514 0.584201
vt 0.875000 0.187500
vt 0.625000 0.562500
vt 0.375000 0.179688
vt 0.125000 0.187500
vt 0.375000 0.562500
vt 0.583171 0.541829
vt 0.414063 0.539063
vt 0.402344 0.525391
vt 0.390625 0.578125
vt 0.540799 0.529514
vt 0.425130 0.550130
vt 0.585938 0.210938
vt 0.400391 0.224609
vt 0.453125 0.234375
vt 0.546875 0.234375
vt 0.390625 0.171875
vt 0.585938 0.210938
vt 0.585938 0.210938
vt 0.585938 0.210938
vt 0.414063 0.210938
vt 0.414063 0.210938
vt 0.453125 0.234375
vt 0.546875 0.234375
vt 0.382813 0.125000
vt 0.390625 0.171875
vt 0.585938 0.210938
vt 0.459201 0.220486
vt 0.342910 0.123793
vt 0.656536 0.127678
vt 0.125000 0.129603
vt 0.375000 0.620397
vt 0.392335 0.623560
vt 0.617012 0.123945
vt 0.580078 0.127221
vt 0.456531 0.129936
vt 0.500000 0.129497
vt 0.459201 0.626026
vt 0.752926 0.124782
vt 0.748118 0.125000
vt 0.625000 0.626407
vt 0.875000 0.123593
vt 0.700164 0.127328
vt 0.247075 0.124704
vt 0.238212 0.125000
vt 0.300855 0.123818
vt 0.617879 0.626055
vt 0.607626 0.624587
vt 0.382335 0.621437
vt 0.382470 0.621616
vt 0.540799 0.625923
vt 0.404514 0.625840
vt 0.632740 0.125510
vt 0.628340 0.125000
vt 0.357382 0.125000
vt 0.617188 0.125000
vt 0.382992 0.126078
vt 0.382813 0.125000
vt 0.382813 0.125000
vt 0.616984 0.125560
vt 0.613099 0.127382
vt 0.604108 0.125000
vt 0.598181 0.125000
vt 0.398441 0.130122
vt 0.576729 0.127003
vt 0.659140 0.127578
vt 0.657848 0.127566
vt 0.129448 0.129448
vt 0.189067 0.126618
vt 0.367443 0.125639
vt 0.367521 0.125668
vt 0.615517 0.129594
vt 0.615575 0.129435
vt 0.383514 0.129207
vt 0.383482 0.123160
vt 0.602149 0.124537
vt 0.382924 0.125670
vn -0.078335 0.387591 0.918497
vn -0.043289 -0.107384 0.993275
vn 0.224028 -0.204025 0.952987
vn 0.223143 0.175755 0.958811
vn -0.843375 0.256847 0.471961
vn -0.803357 0.126773 0.581848
vn 0.000470 0.118666 0.992934
vn -0.577841 0.636119 0.511324
vn -0.521058 0.632433 -0.573173
vn -0.622310 0.637355 -0.454432
vn -0.526202 0.809277 -0.261117
vn -0.369877 0.782229 -0.501306
vn 0.384349 0.899480 0.207875
vn -0.041243 0.943810 0.327906
vn 0.448167 0.893928 -0.006231
vn -0.252611 0.758610 -0.600582
vn -0.511722 0.601361 -0.613600
vn 0.599220 0.552423 0.579452
vn 0.460340 0.493885 0.737675
vn 0.387718 0.821200 0.418696
vn 0.392759 0.615424 0.683369
vn 0.544443 0.653897 0.525358
vn 0.399145 0.899046 0.180000
vn 0.754759 0.578516 0.309286
vn 0.333827 0.927932 0.165840
vn 0.150485 0.971761 -0.181756
vn 0.010258 0.996991 -0.076831
vn 0.789970 0.539199 0.291910
vn 0.387691 0.906689 0.166165
vn 0.666098 0.623184 0.409824
vn 0.140990 0.988980 -0.045163
vn -0.531824 0.639319 -0.555368
vn -0.254187 0.838625 -0.481765
vn -0.292340 0.891484 -0.346112
vn -0.505079 0.597702 -0.622613
vn -0.025311 0.227345 -0.973485
vn 0.353248 0.133042 -0.926021
vn 0.371229 0.032058 -0.927988
vn 0.097040 0.045675 -0.994232
vn 0.618301 0.106214 -0.778731
vn 0.768448 0.033282 -0.639046
vn 0.809379 0.032129 -0.586408
vn 0.370040 0.000430 -0.929016
vn 0.909469 0.371242 0.187204
vn 0.934583 0.178819 0.307536
vn 0.781361 0.368656 0.503555
vn 0.801517 0.454848 0.388181
vn 0.893524 0.395318 0.212928
vn -0.788845 -0.123366 -0.602083
vn -0.797475 -0.221386 -0.561268
vn -0.745357 -0.204330 -0.634581
vn -0.794546 -0.105728 -0.597929
vn -0.807548 -0.034031 -0.588820
vn -0.839677 -0.239754 -0.487298
vn -0.757299 0.178818 -0.628110
vn -0.670391 0.348017 -0.655332
vn -0.772241 0.211208 -0.599195
vn -0.613953 0.664117 -0.426627
vn -0.654411 0.424199 -0.625940
vn -0.692231 0.248527 -0.677532
vn -0.762033 0.198843 -0.616253
vn -0.907774 0.062945 -0.414710
vn -0.536222 0.333183 -0.775536
vn -0.366397 0.556966 -0.745347
vn -0.188053 0.768782 -0.611237
vn 0.038276 0.946972 -0.319029
vn 0.516925 0.828843 0.214029
vn 0.853751 0.504138 0.130207
vn 0.165371 0.965552 -0.200901
vn 0.490049 0.760667 0.425721
vn -0.225078 0.532882 -0.815707
vn 0.986057 0.135634 0.096413
vn 0.929767 0.038873 0.366091
vn 0.956223 -0.128466 0.262932
vn 0.949006 -0.004988 0.315218
vn 0.992272 0.039957 -0.117477
vn -0.384760 0.274055 -0.881393
vn -0.271792 0.212884 -0.938515
vn -0.119832 0.110549 -0.986620
vn 0.429572 0.264288 0.863492
vn 0.405505 0.261267 0.875959
vn 0.419922 0.422000 0.803481
vn 0.391753 0.282449 0.875644
vn 0.314290 0.434295 0.844162
vn 0.222747 0.705296 0.673009
vn 0.631131 0.199861 0.749486
vn -0.154861 0.931595 0.328861
vn 0.349684 0.760954 0.546507
vn -0.474186 0.874471 -0.102221
vn -0.248059 0.959878 -0.130772
vn -0.502377 0.678696 -0.535713
vn 0.019856 0.977440 0.210279
vn -0.214920 0.921117 -0.324582
vn -0.537207 0.464735 -0.703868
vn -0.347828 0.837240 -0.421954
vn 0.074951 0.993222 0.088843
vn 0.305388 0.792292 0.528215
vn 0.728374 0.338397 0.595783
vn -0.729683 0.026967 -0.683254
vn -0.651499 0.136149 -0.746333
vn -0.604666 0.261288 -0.752401
vn -0.560147 0.242061 -0.792239
vn -0.579237 0.262017 -0.771901
vn -0.596496 0.235888 -0.767170
vn -0.708443 0.288104 -0.644286
vn 0.754968 0.124739 0.643788
vn 0.558606 0.424144 0.712784
vn 0.580198 0.394399 0.712615
vn 0.745398 0.161615 0.646732
vn 0.292337 0.855137 0.428111
vn 0.070237 0.997260 -0.023204
vn 0.426874 0.861277 0.275647
vn 0.493730 0.532481 0.687528
vn -0.644963 0.515179 -0.564459
vn -0.461053 0.794474 -0.395273
vn -0.655512 0.531441 -0.536540
vn -0.508399 0.800866 -0.316454
vn -0.095760 0.992603 -0.074630
vn -0.120780 0.984313 0.128609
vn -0.698813 0.515657 -0.495740
vn -0.766007 0.302251 -0.567342
vn 0.531809 0.441670 0.722569
vn 0.295726 0.871357 0.391513
vn 0.256480 0.851610 0.457142
vn 0.448475 0.464091 0.763865
vn -0.811800 0.179202 -0.555758
vn -0.817227 0.173592 -0.549551
vn -0.866284 0.109136 -0.487484
vn -0.874679 -0.319265 -0.364701
vn -0.890173 0.243049 -0.385383
vn -0.941589 -0.021227 -0.336095
vn -0.975582 -0.011672 -0.219327
vn -0.945694 0.224305 -0.235265
vn 0.480941 0.122980 0.868085
vn 0.204148 0.503579 0.839483
vn 0.478045 0.073885 0.875222
vn 0.482077 -0.089668 0.871528
vn 0.350073 -0.007194 0.936695
vn 0.492343 0.059704 0.868351
vn 0.654220 -0.208400 0.727025
vn -0.751776 0.642377 0.148942
vn -0.019291 0.589679 0.807408
vn -0.984826 0.172748 0.016622
vn -0.998617 0.036037 0.038268
vn 0.404926 -0.107324 0.908029
vn 0.102556 0.008450 -0.994691
vn 0.977082 -0.167221 0.131709
vn 0.683717 0.485221 0.545061
vn 0.609582 0.483985 0.627829
vn -0.525594 0.194324 -0.828245
vn -0.397898 0.088809 -0.913121
vn -0.226409 -0.060296 -0.972164
vn -0.114291 -0.005224 -0.993434
vn 0.459732 0.215342 0.861554
vn 0.503267 -0.081478 0.860281
vn 0.512119 0.386244 0.767170
vn 0.525326 0.185686 0.830393
s 1
g pCube3
usemtl initialShadingGroup
f 76/81/1 145/158/2 116/128/3 75/80/4
f 30/35/5 117/129/6 118/130/7 76/81/1
f 30/35/5 76/81/1 7/9/8
f 84/92/9 1/1/10 77/82/11 31/36/12
f 15/16/13 31/36/12 77/82/11 62/67/14
f 31/36/12 15/16/13 49/54/15 52/57/16
f 18/20/17 84/92/9 31/36/12 52/57/16
f 78/83/18 49/54/15 15/16/13 39/44/19
f 32/37/20 49/54/15 78/83/18 2/2/21
f 32/37/20 2/2/21 79/84/22 50/55/23
f 50/55/23 79/84/22 16/17/24 33/38/25
f 49/54/15 32/37/20 50/55/23 51/56/26
f 51/56/26 50/55/23 33/38/25 17/19/27
f 33/38/25 16/17/24 80/86/28
f 81/88/29 33/38/25 80/86/28 4/5/30
f 17/19/27 33/38/25 81/88/29 56/61/31
f 83/90/32 18/20/17 52/57/16 34/39/33
f 34/39/33 52/57/16 49/54/15 51/56/26
f 82/89/34 34/39/33 51/56/26 17/19/27
f 3/3/35 83/90/32 34/39/33 82/89/34
f 94/105/36 19/22/37 53/58/38 85/94/39
f 53/58/38 19/22/37 93/104/40 20/23/41
f 53/58/38 20/23/41 131/144/42 119/131/43
f 24/10/44 21/24/45 80/87/28
f 4/6/30 80/87/28 21/24/45 86/95/46
f 16/18/24 123/136/47 121/133/48 24/10/44 80/87/28
f 54/59/49 126/139/50 111/122/51 22/26/52
f 25/11/53 124/137/54 126/139/50 54/59/49
f 25/11/53 54/59/49 35/40/55 55/60/56
f 54/59/49 22/26/52 87/97/57 35/40/55
f 1/1/10 35/40/55 87/97/57 96/107/58
f 35/40/55 1/1/10 84/93/9
f 55/60/56 35/40/55 84/93/9 18/21/17
f 36/41/59 148/161/60 149/162/61 55/60/56
f 25/11/53 55/60/56 149/162/61 125/138/62
f 36/41/59 55/60/56 18/21/17 83/91/32
f 88/98/63 36/41/59 83/91/32 3/4/35
f 91/102/64 3/3/35 82/89/34 57/62/65
f 57/62/65 82/89/34 17/19/27 56/61/31
f 57/62/65 56/61/31 26/12/66
f 37/42/67 56/61/31 81/88/29 4/5/30
f 37/42/67 4/5/30 86/96/46 89/100/68
f 26/12/66 56/61/31 37/42/67 89/100/68
f 23/27/69 26/12/66 89/100/68 59/64/70
f 90/101/71 91/102/64 57/62/65 26/12/66
f 90/101/71 26/12/66 23/27/69
f 60/65/72 86/96/46 21/25/45 27/13/73
f 21/25/45 122/134/74 127/140/75 27/13/73
f 27/13/73 127/140/75 128/141/76 60/65/72
f 86/96/46 60/65/72 89/100/68
f 88/99/63 3/3/35 91/102/64 58/63/77
f 58/63/77 91/102/64 90/101/71 92/103/78
f 92/103/78 90/101/71 8/28/79
f 19/22/37 23/27/69 59/64/70 93/104/40
f 93/104/40 59/64/70 89/100/68
f 23/27/69 19/22/37 94/105/36
f 60/65/72 128/141/76 131/144/42 20/23/41
f 93/104/40 89/100/68 60/65/72 20/23/41
f 8/28/79 90/101/71 23/27/69 94/105/36
f 8/28/79 94/105/36 85/94/39
f 61/66/80 133/146/81 112/123/82 2/2/21
f 61/66/80 2/2/21 78/83/18
f 61/66/80 78/83/18 39/44/19 38/43/83
f 95/106/84 38/43/83 39/44/19 64/69/85
f 9/29/86 38/43/83 95/106/84
f 39/44/19 15/16/13 62/67/14 64/69/85
f 64/69/85 62/67/14 28/14/87 41/46/88
f 40/45/89 62/67/14 77/82/11 1/1/10
f 40/45/89 1/1/10 96/107/58
f 63/68/90 40/45/89 96/107/58 10/30/91
f 62/67/14 40/45/89 28/14/87
f 28/14/87 40/45/89 63/68/90 11/31/92
f 63/68/90 10/30/91 97/108/93
f 97/108/93 10/30/91 6/8/94 43/48/95
f 11/31/92 63/68/90 97/108/93 66/71/96
f 95/106/84 64/69/85 41/46/88
f 41/46/88 28/14/87 11/31/92 98/109/97
f 5/7/98 95/106/84 41/46/88 98/109/97
f 87/97/57 22/26/52 135/148/99 150/163/100 65/70/101
f 10/30/91 96/107/58 87/97/57 65/70/101
f 22/26/52 111/122/51 135/148/99
f 65/70/101 150/163/100 151/164/102 99/110/103 6/8/94
f 99/110/103 151/164/102 154/167/104 45/50/105
f 10/30/91 65/70/101 6/8/94
f 42/47/106 9/29/86 95/106/84 5/7/98
f 100/111/107 42/47/106 5/7/98 98/109/97
f 42/47/106 100/111/107 9/29/86
f 9/29/86 100/111/107 152/165/108 136/149/109
f 98/109/97 11/31/92 66/71/96 69/74/110
f 69/74/110 66/71/96 29/15/111 44/49/112
f 100/111/107 98/109/97 69/74/110 101/112/113
f 66/71/96 97/108/93 43/48/95 29/15/111
f 43/48/95 6/8/94 103/114/114 67/72/115
f 67/72/115 103/114/114 12/32/116 105/116/117
f 29/15/111 43/48/95 67/72/115 68/73/118
f 68/73/118 67/72/115 105/116/117 13/33/119
f 104/115/120 105/116/117 12/32/116 70/75/121
f 101/112/113 69/74/110 44/49/112 102/113/122
f 44/49/112 29/15/111 68/73/118 106/117/123
f 106/117/123 68/73/118 13/33/119 73/78/124
f 102/113/122 44/49/112 106/117/123 109/120/125
f 103/114/114 6/8/94 99/110/103 45/50/105
f 45/50/105 154/167/104 137/150/126
f 70/75/121 45/50/105 137/150/126 138/151/127 107/118/128
f 12/32/116 103/114/114 45/50/105 70/75/121
f 107/118/128 138/151/127 155/168/129
f 70/75/121 107/118/128 108/119/130 104/115/120
f 108/119/130 107/118/128 139/152/131 157/170/132 74/79/133
f 71/76/134 109/120/125 14/34/135 46/51/136
f 72/77/137 142/155/138 141/154/139 71/76/134 46/51/136
f 46/51/136 14/34/135 75/80/4
f 72/77/137 46/51/136 75/80/4 116/128/3 143/156/140
f 109/120/125 106/117/123 73/78/124 14/34/135
f 108/119/130 105/116/117 104/115/120
f 105/116/117 108/119/130 74/79/133 110/121/141
f 110/121/141 13/33/119 105/116/117
f 47/52/142 14/34/135 73/78/124 13/33/119
f 47/52/142 13/33/119 110/121/141
f 47/52/142 110/121/141 7/9/8 76/81/1
f 14/34/135 47/52/142 76/81/1 75/80/4
f 110/121/141 74/79/133 48/53/143
f 48/53/143 74/79/133 157/170/132 144/157/144
f 30/35/5 48/53/143 144/157/144 117/129/6
f 7/9/8 110/121/141 48/53/143 30/35/5
f 143/156/140 156/169/145 72/77/137
f 118/130/7 145/158/2 76/81/1
f 119/131/43 132/145/146 85/94/39 53/58/38
f 121/133/48 120/132/147 24/10/44
f 120/132/147 122/135/74 21/24/45 24/10/44
f 146/159/148 123/136/47 16/18/24
f 147/160/149 146/159/148 16/18/24 79/85/22
f 112/123/82 147/160/149 79/85/22 2/2/21
f 125/138/62 124/137/54 25/11/53
f 113/124/150 148/161/60 36/41/59 88/98/63
f 129/142/151 113/125/150 88/99/63 58/63/77
f 130/143/152 129/142/151 58/63/77 92/103/78 8/28/79
f 114/126/153 130/143/152 8/28/79
f 132/145/146 114/126/153 8/28/79 85/94/39
f 134/147/154 133/146/81 61/66/80 38/43/83 9/29/86
f 115/127/155 134/147/154 9/29/86
f 153/166/156 152/165/108 100/111/107 101/112/113 102/113/122
f 136/149/109 115/127/155 9/29/86
f 140/153/157 153/166/156 102/113/122 109/120/125
f 141/154/139 140/153/157 109/120/125 71/76/134
f 156/169/145 142/155/138 72/77/137
f 155/168/129 139/152/131 107/118/128
