# This file uses centimeters as units for non-parametric coordinates.

mtllib 3D_prop_object_mountain_004.mtl
g default
v -1.716536 0.381487 0.356196
v -0.929912 0.427007 0.297368
v -1.691745 0.339335 0.037129
v -0.948501 0.416155 -0.125336
v -1.240348 0.155868 0.418439
v -0.408923 0.314156 -0.182762
v -0.130969 0.227311 -0.007652
v -1.745575 0.001612 0.487129
v -0.564673 0.332000 0.145446
v -0.437662 0.465553 0.013730
v -0.464663 0.006733 0.254973
v -0.165858 0.264246 -0.061413
v -1.321484 -0.002424 0.452200
v -1.406682 0.287996 0.417613
v -1.646910 0.002209 0.539975
v -1.398119 0.447116 0.248428
v -0.938117 0.596822 0.067355
v -1.346774 0.347965 -0.097317
v -1.681295 0.435567 0.163077
v -1.718007 -0.001991 -0.069361
v -0.125126 -0.001909 0.053263
v -0.079852 0.171140 0.174025
v -2.110049 -0.003431 0.274372
v -2.047647 0.314756 0.223934
v -1.538361 0.001516 0.534458
v -1.320388 0.497740 0.106134
v -1.350052 0.001702 -0.146696
v -0.205737 -0.003918 -0.048825
v -1.709096 0.441907 0.216461
v -1.108604 0.500045 0.226993
v -1.130714 0.504935 -0.017549
v -1.522999 0.438115 0.057901
v -1.533569 0.187516 -0.075117
v -1.147863 0.193107 -0.166458
v -1.803609 0.386470 0.208127
v -1.773847 0.357902 0.133965
v -0.787154 0.178920 -0.194596
v -0.512893 0.166109 -0.236218
v -0.779980 0.517725 -0.046156
v -0.780071 0.533507 0.137506
v -0.362867 0.164648 0.234272
v -1.507478 0.163313 0.508511
v -1.342960 0.477787 0.204395
v -1.115973 0.536991 0.105100
v -1.328658 0.461859 -0.008964
v -1.532110 0.462384 0.139565
v -1.354300 0.190240 -0.148304
v -1.143354 0.001604 -0.164868
v -1.532732 0.000000 -0.085416
v -0.055918 0.000028 0.208786
v -0.055155 -0.000199 0.178098
v -0.093849 0.159291 0.203176
v -1.883876 -0.000063 0.375073
v -2.056696 0.154695 0.309160
v -1.779877 0.386037 0.162054
v -1.873830 0.376170 0.164767
v -1.900757 0.377533 0.226882
v -1.850488 0.180526 -0.000276
v -1.025830 0.187773 0.322221
v -1.440541 0.430995 0.282700
v -1.245200 0.411489 0.338438
v -0.633417 0.166257 -0.182437
v -0.784106 0.571949 0.040829
v -0.551028 0.433231 0.082893
v -0.539958 0.467541 0.003288
v -0.528625 0.432896 -0.077031
v -0.553589 0.160495 0.219429
v -0.188997 0.391479 0.093823
v -0.178739 0.354880 0.033846
v -0.265829 0.164318 0.240526
v -1.321241 0.149405 0.446429
v -1.558423 0.151386 0.515379
v -1.137262 0.444637 0.316885
v -0.926707 0.553661 0.195691
v -0.948149 0.565643 -0.052340
v -1.145365 0.386981 -0.121430
v -1.526351 0.344176 -0.016863
v -1.670958 0.403155 0.118626
v -0.958091 0.191193 -0.191293
v -1.715472 0.185459 -0.050668
v -0.074285 0.157741 0.135998
v -0.178275 0.016652 0.242104
v -2.043651 0.291890 0.269389
v -2.043009 0.293801 0.181786
v -1.753205 0.203484 0.456678
v -1.834306 0.356046 0.355797
v -1.991437 0.288780 0.328779
v -1.805436 0.314502 0.084455
v -0.901891 -0.002313 0.256339
v -0.884875 0.207372 0.277325
v -1.066820 0.341936 0.368096
v -1.304409 0.280514 0.391282
v -1.642470 0.347991 0.418927
v -0.780261 0.334414 -0.133883
v -0.407135 0.179569 -0.241538
v -0.742987 0.386242 0.235239
v -0.450525 0.431084 0.089102
v -0.423976 0.431466 -0.073855
v -0.363015 0.329692 0.154309
v -1.744690 -0.002373 0.486646
v -0.901901 -0.002373 0.256333
v -1.717964 -0.002373 -0.069238
v -0.962343 -0.002373 -0.215601
v -2.109812 -0.002373 0.274354
v -1.321484 -0.002373 0.452198
v -1.537942 -0.002373 0.533851
v -1.324295 -0.002373 0.453266
v -1.055759 -0.002373 -0.189689
v -1.143111 -0.002373 -0.164012
v -0.128578 -0.002373 0.231162
v -0.056748 -0.002373 0.209084
v -0.055938 -0.002373 0.178307
v -2.086393 -0.002373 0.202823
v -2.078464 -0.002373 0.166737
v -1.881747 -0.002373 0.376096
v -2.039022 -0.002373 0.305996
v -2.109693 -0.002373 0.274604
v -1.727965 -0.002373 -0.065695
v -1.854097 -0.002373 -0.018736
v -0.903178 -0.002373 0.257042
v -1.127287 -0.002373 0.379409
v -1.234228 -0.002373 0.425340
v -1.645578 -0.002373 0.539225
v -0.790886 -0.002373 -0.219331
v -0.622959 -0.002373 -0.211646
v -0.465447 -0.002373 -0.253929
v -0.901857 -0.002373 0.256323
v -0.464675 -0.002373 0.252569
v -0.546826 -0.002373 0.258834
v -0.205508 -0.002373 -0.048898
v -0.143753 -0.002373 0.029674
v -0.125223 -0.002373 0.053436
v -0.183969 -0.002373 0.245143
v -1.536335 -0.002373 0.533394
v -1.534812 -0.002373 -0.084458
v -1.353810 -0.002373 -0.144607
v -1.937496 -0.002373 0.053197
v -0.671890 -0.002373 0.264857
v -0.343845 -0.002373 -0.235096
v -0.257699 -0.002373 -0.154252
v -0.459784 -0.002373 0.256125
vt 0.375000 0.250000
vt 0.625000 0.250000
vt 0.375000 0.500000
vt 0.125000 0.250000
vt 0.625000 0.500000
vt 0.875000 0.250000
vt 0.595486 0.165799
vt 0.835938 0.210938
vt 0.813657 0.188657
vt 0.456163 0.125000
vt 0.500000 0.377930
vt 0.500000 0.625000
vt 0.863498 0.125000
vt 0.580404 0.125000
vt 0.537760 0.199870
vt 0.397569 0.125000
vt 0.500000 0.282227
vt 0.625000 0.375000
vt 0.750000 0.250000
vt 0.500000 0.500000
vt 0.375000 0.375000
vt 0.250000 0.250000
vt 0.375000 0.625000
vt 0.125000 0.125000
vt 0.852431 0.125000
vt 0.750000 0.168837
vt 0.352431 0.125000
vt 0.250000 0.205404
vt 0.378906 0.125000
vt 0.664063 0.210938
vt 0.750000 0.242188
vt 0.632813 0.125000
vt 0.824870 0.199870
vt 0.375000 0.312500
vt 0.562500 0.320313
vt 0.562500 0.437500
vt 0.437500 0.437500
vt 0.437500 0.562500
vt 0.562500 0.562500
vt 0.304688 0.242188
vt 0.195313 0.242188
vt 0.867188 0.179688
vt 0.859375 0.171875
vt 0.804688 0.242188
vt 0.695313 0.242188
vt 0.640625 0.171875
vt 0.459201 0.165799
vt 0.500000 0.324219
vt 0.562500 0.376953
vt 0.500000 0.437500
vt 0.437500 0.376953
vt 0.500000 0.562500
vt 0.562500 0.625000
vt 0.437500 0.625000
vt 0.750000 0.125000
vt 0.793837 0.125000
vt 0.709201 0.165799
vt 0.371094 0.125000
vt 0.345486 0.165799
vt 0.250000 0.246094
vt 0.250000 0.239475
vt 0.297309 0.232856
vt 0.132813 0.179688
vt 0.617188 0.179688
vt 0.500000 0.257813
vt 0.554688 0.250000
vt 0.861328 0.173828
vt 0.750000 0.246094
vt 0.703125 0.234375
vt 0.750000 0.242188
vt 0.796875 0.234375
vt 0.640625 0.171875
vt 0.750000 0.227431
vt 0.790799 0.220486
vt 0.644097 0.170356
vt 0.574870 0.162760
vt 0.425130 0.162760
vt 0.560547 0.275391
vt 0.625000 0.312500
vt 0.687500 0.250000
vt 0.625000 0.437500
vt 0.812500 0.250000
vt 0.562500 0.500000
vt 0.437500 0.500000
vt 0.375000 0.437500
vt 0.187500 0.250000
vt 0.312500 0.250000
vt 0.625000 0.562500
vt 0.875000 0.187500
vt 0.375000 0.562500
vt 0.125000 0.187500
vt 0.790799 0.165799
vt 0.647569 0.125000
vt 0.287760 0.199870
vt 0.212240 0.199870
vt 0.375000 0.183594
vt 0.347656 0.222656
vt 0.324870 0.199870
vt 0.152344 0.222656
vt 0.625000 0.125000
vt 0.625000 0.183594
vt 0.597656 0.224609
vt 0.574870 0.199870
vt 0.402344 0.224609
vt 0.847656 0.222656
vt 0.859375 0.171875
vt 0.652344 0.222656
vt 0.703125 0.234375
vt 0.796875 0.234375
vt 0.664063 0.210938
vt 0.378984 0.123910
vt 0.625000 0.124981
vt 0.125000 0.124871
vt 0.375000 0.625129
vt 0.625000 0.623661
vt 0.875000 0.126339
vt 0.352199 0.125268
vt 0.580402 0.125013
vt 0.456194 0.124032
vt 0.578793 0.125000
vt 0.592761 0.625000
vt 0.562500 0.626314
vt 0.709201 0.125091
vt 0.750000 0.124400
vt 0.793819 0.124456
vt 0.250000 0.125047
vt 0.210272 0.124943
vt 0.371230 0.124363
vt 0.358292 0.125000
vt 0.352384 0.125273
vt 0.125286 0.125000
vt 0.129007 0.126411
vt 0.624941 0.125000
vt 0.614621 0.127940
vt 0.602108 0.126896
vt 0.397988 0.123863
vt 0.871051 0.125599
vt 0.867877 0.127052
vt 0.866183 0.131029
vt 0.625002 0.124983
vt 0.633179 0.122803
vt 0.632400 0.125000
vt 0.863276 0.125431
vt 0.854988 0.125000
vt 0.852388 0.124883
vt 0.648618 0.120470
vt 0.457022 0.124032
vt 0.436709 0.625791
vt 0.498654 0.626346
vt 0.144360 0.128879
vt 0.631453 0.128285
vt 0.866412 0.129654
vt 0.865619 0.127774
vt 0.633725 0.122768
vn 0.309771 0.044363 0.949776
vn 0.318289 0.162414 0.933978
vn 0.338875 0.061299 0.938832
vn 0.354962 0.034937 0.934228
vn 0.252587 0.082031 0.964091
vn 0.217753 0.292717 0.931075
vn 0.200164 0.600272 0.774344
vn 0.311876 0.077327 0.946971
vn 0.165038 0.362767 0.917149
vn -0.068645 0.315586 0.946411
vn -0.239223 0.276330 0.930814
vn -0.086554 0.876896 0.472823
vn -0.192900 0.956927 0.216978
vn -0.117717 0.911732 0.393558
vn 0.015821 0.831579 0.555181
vn -0.121736 0.944556 0.304950
vn -0.201092 0.965739 -0.164043
vn -0.216708 0.954277 -0.205894
vn -0.174613 0.982347 -0.067121
vn -0.101565 0.863529 0.493966
vn -0.020185 0.675878 0.736737
vn 0.313794 0.335349 0.888299
vn 0.112090 0.812810 0.571643
vn -0.256734 0.966167 0.024687
vn -0.119156 0.989856 0.077372
vn -0.247773 0.790652 -0.559892
vn -0.241717 0.786712 -0.568028
vn -0.084812 0.731270 -0.676794
vn -0.005078 0.420034 -0.907494
vn -0.164845 0.417609 -0.893549
vn -0.263987 0.446365 -0.855026
vn -0.361464 0.794860 -0.487382
vn -0.298965 0.797494 -0.524045
vn -0.307897 0.586339 -0.749270
vn -0.303855 0.471257 -0.828003
vn -0.268454 0.207373 -0.940707
vn -0.247186 0.277504 -0.928381
vn -0.243006 0.127427 -0.961619
vn -0.235012 0.043249 -0.971030
vn -0.211678 -0.003297 -0.977334
vn -0.121452 0.075459 -0.989725
vn -0.130647 0.134736 -0.982231
vn -0.038855 0.217445 -0.975299
vn -0.083077 0.103938 -0.991108
vn -0.270116 -0.012887 -0.962741
vn -0.147460 -0.016525 -0.988930
vn -0.186106 -0.246402 -0.951131
vn -0.294472 0.007193 -0.955633
vn 0.645998 0.157124 0.746993
vn 0.664583 -0.141750 0.733646
vn 0.877160 -0.345839 -0.333146
vn 0.944331 -0.013958 -0.328700
vn 0.879600 -0.074841 -0.469790
vn 0.782651 -0.156700 -0.602414
vn 0.901262 0.391589 0.185433
vn 0.946689 0.115662 -0.300669
vn 0.897950 0.102670 -0.427954
vn 0.270970 0.396242 0.877250
vn 0.357598 0.742321 0.566642
vn -0.666485 0.326986 -0.669984
vn -0.723322 0.110905 -0.681547
vn -0.975973 0.154008 -0.154140
vn -0.858576 0.492219 -0.143419
vn -0.518115 -0.236887 0.821852
vn -0.407383 0.200501 0.890976
vn -0.626959 0.088945 0.773958
vn -0.320684 0.229379 0.918992
vn -0.472205 -0.040652 0.880551
vn -0.296436 0.653010 0.696924
vn -0.081826 0.536428 0.839970
vn -0.476869 0.423807 0.770054
vn -0.520151 0.016992 0.853905
vn -0.804139 0.396499 0.442888
vn -0.416714 -0.079668 0.905540
vn -0.629407 0.041658 0.775959
vn -0.405119 -0.063954 0.912024
vn -0.982597 0.185412 0.011178
vn -0.234956 0.967444 0.094065
vn -0.327993 0.936371 0.125024
vn -0.286048 0.834210 -0.471456
vn -0.326814 0.702622 -0.632072
vn -0.285237 0.762074 -0.581277
vn -0.349280 0.600088 -0.719651
vn -0.501865 0.268679 -0.822158
vn -0.436405 0.097705 -0.894430
vn -0.349140 0.099243 -0.931800
vn 0.340546 -0.047991 0.939002
vn 0.148908 -0.084674 0.985219
vn 0.252167 0.001159 0.967683
vn 0.243374 0.121314 0.962316
vn 0.345738 0.290496 0.892232
vn 0.479216 0.008266 0.877658
vn 0.422049 0.044815 0.905465
vn -0.069922 0.578661 0.812565
vn -0.182403 -0.196554 0.963377
vn 0.081469 0.361270 -0.928896
vn 0.049964 0.248304 -0.967393
vn -0.016149 0.590488 -0.806885
vn -0.061482 0.271824 -0.960381
vn -0.219331 0.242619 -0.945003
vn 0.242259 0.740372 -0.627024
vn 0.212774 0.584171 -0.783244
vn 0.398988 0.169539 -0.901147
vn 0.188967 0.631030 -0.752391
vn 0.329158 0.943324 -0.042372
vn 0.278146 0.959834 0.036801
vn 0.387551 0.719649 0.576115
vn 0.320788 0.688777 0.650139
vn 0.232844 0.474251 0.849040
vn 0.035755 0.699197 0.714034
vn 0.061343 0.510664 0.857589
vn 0.214009 0.971422 0.102665
vn 0.134537 0.095302 0.986315
vn 0.113218 0.227623 0.967145
vn 0.035956 0.236031 0.971080
vn 0.000858 0.147902 0.989002
vn 0.471311 -0.166604 0.866089
vn -0.036862 -0.096610 0.994640
vn 0.663835 0.371473 -0.649100
vn 0.777990 -0.144326 -0.611475
vn 0.831302 -0.148229 -0.535691
vn 0.779433 -0.143517 -0.609825
vn 0.611038 0.671870 -0.418596
vn 0.030773 0.318759 0.947336
vn 0.120465 0.099897 0.987678
vn 0.051160 0.173037 0.983586
vn 0.037068 0.144914 0.988750
vn 0.056646 0.140920 0.988399
vn 0.051129 -0.147889 0.987682
vn 0.352291 -0.071818 0.933131
vn -0.119236 -0.294061 -0.948320
vn -0.237538 -0.212147 -0.947929
vn 0.274478 0.106251 0.955705
vn -0.640973 0.101416 -0.760834
vn 0.371124 0.054769 0.926967
vn 0.022397 0.140883 -0.989773
vn -0.128144 0.117430 -0.984779
vn -0.122247 0.062757 -0.990514
vn 0.490552 0.102462 -0.865367
vn 0.033633 -0.255127 0.966322
vn 0.660126 0.071918 -0.747704
s 1
g pCube4
usemtl initialShadingGroup
f 105/118/1 71/76/2 107/120/3 13/14/4
f 25/10/5 107/120/3 71/76/2 42/47/6
f 14/15/7 71/76/2 5/7/8 92/103/9
f 71/76/2 14/15/7 42/47/6
f 72/77/10 15/16/11 25/10/5 42/47/6
f 16/17/12 29/34/13 1/1/14 60/65/15
f 29/34/13 16/17/12 43/48/16
f 29/34/13 43/48/16 46/51/17 19/21/18
f 26/11/19 46/51/17 43/48/16 30/35/20
f 43/48/16 16/17/12 73/78/21 30/35/20
f 30/35/20 73/78/21 2/2/22 74/79/23
f 44/49/24 30/35/20 74/79/23 17/18/25
f 26/11/19 30/35/20 44/49/24
f 26/11/19 44/49/24 31/36/26 45/50/27
f 31/36/26 44/49/24 17/18/25 75/81/28
f 31/36/26 75/81/28 4/5/29 76/83/30
f 45/50/27 31/36/26 76/83/30 18/20/31
f 19/21/18 46/51/17 78/85/32
f 78/85/32 46/51/17 32/37/33 3/3/34
f 32/37/33 46/51/17 26/11/19 45/50/27
f 77/84/35 32/37/33 45/50/27 18/20/31
f 3/3/34 32/37/33 77/84/35
f 3/3/34 77/84/35 33/38/36 80/90/37
f 33/38/36 77/84/35 18/20/31 47/52/38
f 49/54/39 33/38/36 47/52/38 27/12/40
f 80/90/37 33/38/36 49/54/39 20/23/41
f 34/39/42 18/20/31 76/83/30 79/88/43
f 18/20/31 34/39/42 47/52/38
f 4/5/29 79/88/43 76/83/30
f 79/88/43 103/115/44 34/39/42
f 34/39/42 103/115/44 108/121/45 48/53/46
f 27/12/40 47/52/38 34/39/42 48/53/46
f 20/23/41 49/54/39 135/148/47 102/114/48
f 50/55/49 111/124/50 112/125/51 51/56/52
f 21/25/53 51/56/52 112/125/51 132/145/54
f 22/26/55 50/55/49 51/56/52 81/92/56
f 81/92/56 51/56/52 21/25/53 7/9/57
f 52/57/58 50/55/49 22/26/55 68/73/59
f 84/95/60 114/127/61 113/126/62 24/28/63
f 100/111/64 8/29/65 115/128/66
f 85/96/67 53/58/68 115/128/66 8/29/65
f 1/1/14 86/97/69 93/104/70
f 85/96/67 93/104/70 86/97/69 87/98/71
f 54/59/72 85/96/67 87/98/71 83/94/73
f 53/58/68 85/96/67 54/59/72 116/129/74
f 116/129/74 54/59/72 117/130/75 23/27/76
f 23/27/76 117/130/75 104/117/77
f 29/87/13 35/40/78 1/1/14
f 86/97/69 1/1/14 35/40/78 57/62/79
f 29/87/13 19/22/18 55/60/80 35/40/78
f 35/40/78 55/60/80 56/61/81 57/62/79
f 55/60/80 19/22/18 78/86/32 36/41/82
f 36/41/82 78/86/32 3/4/34 88/99/83
f 56/61/81 55/60/80 36/41/82 88/99/83
f 56/61/81 88/99/83 58/63/84 84/95/60
f 57/62/79 56/61/81 84/95/60 24/28/63
f 87/98/71 86/97/69 57/62/79 83/94/73
f 57/62/79 24/28/63 83/94/73
f 88/99/83 3/4/34 80/91/37 58/63/84
f 119/132/85 58/63/84 80/91/37 118/131/86
f 118/131/86 80/91/37 20/24/41 102/113/48
f 59/64/87 89/100/88 90/101/89 91/102/90
f 2/2/22 91/102/90 90/101/89 96/107/91
f 120/133/92 89/100/88 59/64/87 121/134/93
f 5/7/8 59/64/87 91/102/90 92/103/9
f 2/2/22 73/78/21 91/102/90
f 91/102/90 73/78/21 61/66/94 92/103/9
f 61/66/94 73/78/21 16/17/12 60/65/15
f 60/65/15 1/1/14 93/104/70
f 60/65/15 93/104/70 14/15/7 92/103/9
f 42/47/6 14/15/7 93/104/70 72/77/10
f 92/103/9 61/66/94 60/65/15
f 85/96/67 8/29/65 72/77/10 93/104/70
f 72/77/10 8/29/65 15/16/11
f 15/16/11 8/29/65 100/111/64 123/136/95
f 79/89/43 4/6/29 94/105/96 37/42/97
f 37/42/97 94/105/96 66/71/98 62/67/99
f 62/67/99 66/71/98 38/43/100
f 38/43/100 66/71/98 98/109/101 6/8/102
f 38/43/100 6/8/102 95/106/103
f 4/6/29 75/82/28 39/44/104 94/105/96
f 17/19/25 63/68/105 75/82/28
f 39/44/104 75/82/28 63/68/105 65/70/106
f 39/44/104 65/70/106 66/71/98
f 94/105/96 39/44/104 66/71/98
f 17/19/25 74/80/23 40/45/107 63/68/105
f 40/45/107 74/80/23 2/2/22 96/107/91
f 64/69/108 40/45/107 96/107/91 9/30/109
f 63/68/105 40/45/107 64/69/108 65/70/106
f 97/108/110 64/69/108 9/30/109 99/110/111
f 65/70/106 64/69/108 97/108/110 10/31/112
f 66/71/98 65/70/106 10/31/112 98/109/101
f 90/101/89 138/151/113 67/72/114 96/107/91
f 67/72/114 138/151/113 129/142/115 11/32/116
f 9/30/109 96/107/91 67/72/114
f 101/112/117 127/140/118 89/100/88 120/133/92
f 12/33/119 95/106/103 6/8/102
f 28/13/120 130/143/121 131/144/122
f 69/74/123 98/109/101 10/31/112 68/73/59
f 12/33/119 6/8/102 98/109/101 69/74/123
f 99/110/111 68/73/59 10/31/112 97/108/110
f 68/73/59 99/110/111 41/46/124 52/57/58
f 69/74/123 68/73/59 22/26/55 81/92/56
f 7/9/57 12/33/119 69/74/123 81/92/56
f 99/110/111 9/30/109 67/72/114 41/46/124
f 67/72/114 11/32/116 41/46/124
f 41/46/124 11/32/116 82/93/125 70/75/126
f 11/32/116 141/154/127 133/146/128 82/93/125
f 52/57/58 41/46/124 70/75/126
f 70/75/126 82/93/125 52/57/58
f 123/136/95 106/119/129 25/10/5 15/16/11
f 134/147/130 107/120/3 25/10/5
f 106/119/129 134/147/130 25/10/5
f 109/122/131 136/149/132 27/12/40 48/53/46
f 108/121/45 109/122/131 48/53/46
f 136/149/132 135/148/47 49/54/39 27/12/40
f 133/146/128 110/123/133 82/93/125
f 52/57/58 82/93/125 110/123/133 50/55/49
f 111/124/50 50/55/49 110/123/133
f 113/126/62 104/117/77 83/94/73 24/28/63
f 58/63/84 137/150/134 114/127/61 84/95/60
f 116/129/74 115/128/66 53/58/68
f 83/94/73 104/117/77 117/130/75 54/59/72
f 119/132/85 137/150/134 58/63/84
f 5/7/8 122/135/135 121/134/93 59/64/87
f 71/76/2 105/118/1 122/135/135 5/7/8
f 37/42/97 124/137/136 103/116/44 79/89/43
f 62/67/99 125/138/137 124/137/136 37/42/97
f 38/43/100 126/139/138 125/138/137 62/67/99
f 95/106/103 139/152/139 126/139/138 38/43/100
f 89/100/88 127/140/118 138/151/113 90/101/89
f 129/142/115 128/141/140 11/32/116
f 130/143/121 140/153/141 12/33/119
f 140/153/141 139/152/139 95/106/103 12/33/119
f 130/143/121 12/33/119 7/9/57 131/144/122
f 131/144/122 7/9/57 21/25/53 132/145/54
f 128/141/140 141/154/127 11/32/116
